<?xml version="1.0" standalone="no"?>
<!DOCTYPE svg PUBLIC "-//W3C//DTD SVG 20010904//EN"
 "http://www.w3.org/TR/2001/REC-SVG-20010904/DTD/svg10.dtd">
<svg version="1.0" xmlns="http://www.w3.org/2000/svg"
 width="314.000000pt" height="314.000000pt" viewBox="0 0 314.000000 314.000000"
 preserveAspectRatio="xMidYMid meet">
<metadata>
Created by potrace 1.14, written by Peter Selinger 2001-2017
</metadata>
<g transform="translate(0.000000,314.000000) scale(0.100000,-0.100000)"
fill="#000000" stroke="none">
<path d="M1540 2970 c-14 -10 -70 -47 -125 -82 -55 -35 -166 -106 -248 -158
-81 -52 -155 -99 -165 -105 -10 -5 -114 -72 -232 -147 -118 -75 -323 -206
-455 -290 l-240 -153 -2 -153 c-1 -83 1 -152 5 -152 4 0 77 45 162 99 85 55
227 145 315 201 88 56 347 221 575 366 228 146 420 268 427 271 7 3 343 -207
748 -466 405 -259 740 -471 744 -471 5 0 8 69 8 153 l0 152 -31 20 c-17 11
-142 91 -277 178 l-246 157 -1 207 c0 115 -1 214 -1 221 -1 9 -38 12 -151 12
l-150 0 0 -120 c0 -66 -2 -120 -5 -120 -2 0 -60 35 -127 78 -68 43 -204 130
-303 193 -99 63 -184 118 -190 121 -5 3 -21 -2 -35 -12z"/>
<path d="M1359 2368 c-112 -72 -229 -146 -259 -165 -30 -19 -94 -60 -143 -91
-48 -31 -147 -95 -220 -141 -371 -237 -400 -257 -415 -281 -10 -16 -13 -103
-12 -383 1 -437 6 -727 14 -785 16 -113 112 -246 216 -297 107 -54 85 -53
1025 -53 775 0 882 2 933 16 147 41 259 154 297 298 12 49 15 151 15 617 0
496 -2 562 -16 586 -10 18 -133 102 -335 232 -176 112 -327 210 -337 217 -9 7
-54 36 -99 65 -75 48 -346 222 -427 274 l-33 21 -204 -130z"/>
</g>
</svg>
